<svg xmlns="http://www.w3.org/2000/svg" viewBox="0 0 64 64"><g id="_02-Pressure" data-name="02-Pressure"><path d="M47,37a13,13,0,0,0,.109-25.994,17.982,17.982,0,0,0-33.68,4.119A10.993,10.993,0,0,0,4,26c0,6.075,6,11,14,11Z" style="fill:#a4eaff"/><path d="M47.11,11H47a12.991,12.991,0,0,0-11.3,6.59A12,12,0,0,0,23.05,37H18C10,37,4,32.08,4,26a11,11,0,0,1,9.43-10.88A17.985,17.985,0,0,1,47.11,11Z" style="fill:#83d9f2"/><path d="M16,27a5.828,5.828,0,0,1-7,3c-2.681-.874-4.271-3.333-4.8-6.085A11.009,11.009,0,0,0,4,26c0,6.08,6,11,14,11h5.05a12,12,0,0,1,7.29-19.872C23.63,17.152,19.179,21.437,16,27Z" style="fill:#69cae6"/><path d="M35.143,17.422c.2.054.4.105.591.168A12.991,12.991,0,0,1,47.034,11h.11a18,18,0,0,0-1.111-1.908C37.581,9.876,35.573,15.574,35.143,17.422Z" style="fill:#69cae6"/><path d="M63,63H62c-7.018,0-13.264-5.385-14.692-6.707l-2.373,2.373a1.134,1.134,0,0,1-1.935-.8v-8.6A2.267,2.267,0,0,1,45.267,47h8.6a1.134,1.134,0,0,1,.8,1.935l-2.831,2.831C53.677,53.378,58.332,57,63,57Z" style="fill:#a4eaff"/><path d="M1,63H2c7.018,0,13.264-5.385,14.692-6.707l2.373,2.373a1.134,1.134,0,0,0,1.935-.8v-8.6A2.267,2.267,0,0,0,18.733,47h-8.6a1.134,1.134,0,0,0-.8,1.935l2.831,2.831C10.323,53.378,5.668,57,1,57Z" style="fill:#a4eaff"/><path d="M27,49V43H24.8a1.928,1.928,0,0,1-1.63-1.112,2.189,2.189,0,0,1,.345-2.268l5.87-6.4A3.554,3.554,0,0,1,32,32h0a3.554,3.554,0,0,1,2.615,1.216l5.87,6.4a2.189,2.189,0,0,1,.345,2.268A1.928,1.928,0,0,1,39.2,43H37v6Z" style="fill:#83d9f2"/><path d="M47,38H46V36h1a12,12,0,0,0,.1-23.995,1,1,0,0,1-.887-.554A16.906,16.906,0,0,0,31,2,17.091,17.091,0,0,0,14.406,15.339a1,1,0,0,1-.835.776A10.037,10.037,0,0,0,5,26c0,5.607,5.71,10,13,10h4v2H18C9.589,38,3,32.729,3,26a12.053,12.053,0,0,1,9.609-11.748A19.112,19.112,0,0,1,31,0,18.887,18.887,0,0,1,47.728,10.024,14,14,0,0,1,47,38Z"/><rect x="42" y="36" width="2" height="2"/><path d="M38,49H36V43a1,1,0,0,1,1-1h2.2a.951.951,0,0,0,.7-.491,1.2,1.2,0,0,0-.157-1.214l-5.871-6.4a2.474,2.474,0,0,0-3.754,0l-5.871,6.4A1.2,1.2,0,0,0,24.1,41.51a.949.949,0,0,0,.7.49H27a1,1,0,0,1,1,1v6H26V44H24.8a2.913,2.913,0,0,1-2.555-1.732,3.2,3.2,0,0,1,.533-3.324l5.87-6.4a4.416,4.416,0,0,1,6.7,0l5.87,6.4a3.2,3.2,0,0,1,.534,3.323A2.915,2.915,0,0,1,39.2,44H38Z"/><path d="M63,64H62c-6.5,0-12.24-4.257-14.653-6.333l-1.7,1.706A2.134,2.134,0,0,1,42,57.864v-8.6A3.27,3.27,0,0,1,45.267,46h8.6a2.134,2.134,0,0,1,1.509,3.642l-2.06,2.06C55.387,53.376,59.237,56,63,56v2c-5.017,0-9.94-3.833-11.824-5.482a1,1,0,0,1-.048-1.459l2.831-2.831a.134.134,0,0,0-.1-.228h-8.6A1.268,1.268,0,0,0,44,49.267v8.6a.119.119,0,0,0,.083.124.118.118,0,0,0,.145-.029L46.6,55.586a1,1,0,0,1,1.386-.027C49.149,56.635,55.284,62,62,62h1Z"/><path d="M2,64H1V62H2c6.718,0,12.851-5.365,14.012-6.441a1,1,0,0,1,1.387.027l2.373,2.373a.134.134,0,0,0,.228-.1v-8.6A1.268,1.268,0,0,0,18.733,48h-8.6a.119.119,0,0,0-.124.083.117.117,0,0,0,.03.144l2.83,2.832a1,1,0,0,1-.048,1.459C10.94,54.167,6.017,58,1,58V56c3.763,0,7.613-2.624,9.687-4.3l-2.06-2.06A2.134,2.134,0,0,1,10.136,46h8.6A3.27,3.27,0,0,1,22,49.267v8.6a2.134,2.134,0,0,1-3.642,1.51l-1.706-1.707C14.24,59.744,8.5,64,2,64Z"/><path d="M34,43H31a1,1,0,0,1-1-1V36h2v5h2Z"/></g></svg>