<svg id="_01-Pressure" data-name="01-Pressure" xmlns="http://www.w3.org/2000/svg" viewBox="0 0 64 64"><path d="M27,39v6H24.8a1.928,1.928,0,0,0-1.63,1.112,2.189,2.189,0,0,0,.345,2.268l5.87,6.4A3.554,3.554,0,0,0,32,56h0a3.554,3.554,0,0,0,2.615-1.216l5.87-6.4a2.189,2.189,0,0,0,.345-2.268A1.928,1.928,0,0,0,39.2,45H37V39Z" style="fill:#ffb145"/><circle cx="32" cy="19" r="11" style="fill:#ffb145"/><path d="M34,26A10.964,10.964,0,0,1,23.378,12.182a10.993,10.993,0,1,0,19.244,9.636A10.974,10.974,0,0,1,34,26Z" style="fill:#fca124"/><path d="M41,54s8,5,14,5v2.586A1.414,1.414,0,0,0,56.414,63h0a1.415,1.415,0,0,0,1-.414l5.172-5.172a1.415,1.415,0,0,0,.414-1v-.828a1.415,1.415,0,0,0-.414-1l-5.172-5.172a1.415,1.415,0,0,0-1-.414h0A1.414,1.414,0,0,0,55,50.414V53c-6,0-11-4-11-4Z" style="fill:#ffdc78"/><path d="M23,54s-8,5-14,5v2.586A1.414,1.414,0,0,1,7.586,63h0a1.415,1.415,0,0,1-1-.414L1.414,57.414a1.415,1.415,0,0,1-.414-1v-.828a1.415,1.415,0,0,1,.414-1l5.172-5.172a1.415,1.415,0,0,1,1-.414h0A1.414,1.414,0,0,1,9,50.414V53c6,0,11-4,11-4Z" style="fill:#ffdc78"/><path d="M32,57a4.535,4.535,0,0,1-3.352-1.541l-5.87-6.4a3.2,3.2,0,0,1-.534-3.323A2.915,2.915,0,0,1,24.8,44H26V39h2v6a1,1,0,0,1-1,1H24.8a.951.951,0,0,0-.705.491,1.2,1.2,0,0,0,.157,1.214l5.871,6.4a2.474,2.474,0,0,0,3.754,0l5.871-6.4A1.2,1.2,0,0,0,39.9,46.49a.949.949,0,0,0-.7-.49H37a1,1,0,0,1-1-1V39h2v5h1.2a2.913,2.913,0,0,1,2.555,1.732,3.2,3.2,0,0,1-.533,3.324l-5.87,6.4A4.535,4.535,0,0,1,32,57Z"/><path d="M44.933,50.851a17.517,17.517,0,0,1-1.558-1.07l1.249-1.563a15.177,15.177,0,0,0,1.362.932Z"/><path d="M56.414,64A2.417,2.417,0,0,1,54,61.586V59.96c-6.038-.47-13.211-4.913-13.53-5.112l1.06-1.7C41.607,53.2,49.361,58,55,58a1,1,0,0,1,1,1v2.586a.43.43,0,0,0,.707.293l5.172-5.172A.417.417,0,0,0,62,56.414v-.828a.417.417,0,0,0-.121-.293l-5.172-5.172a.43.43,0,0,0-.707.293V53a1,1,0,0,1-1,1,18.964,18.964,0,0,1-8.458-2.238l.916-1.778A17.657,17.657,0,0,0,54,51.96V50.414a2.414,2.414,0,0,1,4.121-1.707l5.172,5.172A2.4,2.4,0,0,1,64,55.586v.828a2.4,2.4,0,0,1-.707,1.707l-5.172,5.172A2.4,2.4,0,0,1,56.414,64Z"/><path d="M19.067,50.851l-1.053-1.7a15.177,15.177,0,0,0,1.362-.932l1.249,1.563A17.517,17.517,0,0,1,19.067,50.851Z"/><path d="M7.586,64a2.4,2.4,0,0,1-1.707-.707L.707,58.121A2.4,2.4,0,0,1,0,56.414v-.828a2.4,2.4,0,0,1,.707-1.707l5.172-5.172A2.414,2.414,0,0,1,10,50.414V51.96a17.657,17.657,0,0,0,6.542-1.976l.916,1.778A18.964,18.964,0,0,1,9,54a1,1,0,0,1-1-1V50.414a.43.43,0,0,0-.707-.293L2.121,55.293A.417.417,0,0,0,2,55.586v.828a.417.417,0,0,0,.121.293l5.172,5.172A.43.43,0,0,0,8,61.586V59a1,1,0,0,1,1-1c5.648,0,13.393-4.8,13.47-4.848l1.06,1.7c-.319.2-7.492,4.642-13.53,5.112v1.626A2.417,2.417,0,0,1,7.586,64Z"/><rect x="29" y="45" width="2" height="6"/><rect x="33" y="45" width="2" height="6"/><rect x="30" y="47" width="4" height="2"/><path d="M32,31A12,12,0,1,1,44,19,12.013,12.013,0,0,1,32,31ZM32,9A10,10,0,1,0,42,19,10.011,10.011,0,0,0,32,9Z"/><rect x="46" y="18" width="4" height="2"/><rect x="14" y="18" width="4" height="2"/><rect x="46" y="18" width="4" height="2"/><rect x="14" y="18" width="4" height="2"/><rect x="31" y="1" width="2" height="4"/><rect x="31" y="33" width="2" height="3"/><rect x="31" y="1" width="2" height="4"/><rect x="31" y="33" width="2" height="4"/><rect x="42.314" y="28.314" width="2" height="4" transform="translate(-8.749 39.506) rotate(-45)"/><rect x="19.686" y="5.686" width="2" height="4" transform="translate(0.624 16.879) rotate(-45)"/><rect x="42.314" y="28.314" width="2" height="4" transform="translate(-8.749 39.506) rotate(-45)"/><rect x="19.686" y="5.686" width="2" height="4" transform="translate(0.624 16.879) rotate(-45)"/><rect x="18.686" y="29.314" width="4" height="2" transform="translate(-15.376 23.506) rotate(-45)"/><rect x="41.314" y="6.686" width="4" height="2" transform="translate(7.251 32.879) rotate(-45)"/><rect x="18.686" y="29.314" width="4" height="2" transform="translate(-15.376 23.506) rotate(-45)"/><rect x="41.314" y="6.686" width="4" height="2" transform="translate(7.251 32.879) rotate(-45)"/></svg>