<svg xmlns="http://www.w3.org/2000/svg" viewBox="0 0 64 64"><g id="_04-Damp" data-name="04-Damp"><path d="M47,37a13,13,0,0,0,.109-25.994,17.982,17.982,0,0,0-33.68,4.119A10.993,10.993,0,0,0,4,26c0,6.075,6,11,14,11Z" style="fill:#e4e4e9"/><path d="M47.11,11H47a12.991,12.991,0,0,0-11.3,6.59A12,12,0,0,0,23.05,37H18C10,37,4,32.08,4,26a11,11,0,0,1,9.43-10.88A17.985,17.985,0,0,1,47.11,11Z" style="fill:#d2d2d6"/><path d="M16,27a5.828,5.828,0,0,1-7,3c-2.681-.874-4.271-3.333-4.8-6.085A11.009,11.009,0,0,0,4,26c0,6.08,6,11,14,11h5.05a12,12,0,0,1,7.29-19.872C23.63,17.152,19.179,21.437,16,27Z" style="fill:#b9b9bd"/><path d="M35.143,17.422c.2.054.4.105.591.168A12.991,12.991,0,0,1,47.034,11h.11a18,18,0,0,0-1.111-1.908C37.581,9.876,35.573,15.574,35.143,17.422Z" style="fill:#b9b9bd"/><path d="M24,38a4,4,0,0,1-8,0c0-2.209,3-6,4-6S24,35.791,24,38Z" style="fill:#83d9f2"/><path d="M24,52a4,4,0,0,1-8,0c0-2.209,3-6,4-6S24,49.791,24,52Z" style="fill:#83d9f2"/><path d="M48,38a4,4,0,0,1-8,0c0-2.209,3-6,4-6S48,35.791,48,38Z" style="fill:#83d9f2"/><path d="M48,52a4,4,0,0,1-8,0c0-2.209,3-6,4-6S48,49.791,48,52Z" style="fill:#83d9f2"/><path d="M36,45a4,4,0,0,1-8,0c0-2.209,3-6,4-6S36,42.791,36,45Z" style="fill:#83d9f2"/><path d="M36,59a4,4,0,0,1-8,0c0-2.209,3-6,4-6S36,56.791,36,59Z" style="fill:#83d9f2"/><path d="M45,40a3.9,3.9,0,0,1-3.749-5.273A6.886,6.886,0,0,0,40,38a4,4,0,0,0,7.929.707A3.979,3.979,0,0,1,45,40Z" style="fill:#69cae6"/><path d="M33,47a3.9,3.9,0,0,1-3.749-5.273A6.886,6.886,0,0,0,28,45a4,4,0,0,0,7.929.707A3.979,3.979,0,0,1,33,47Z" style="fill:#69cae6"/><path d="M33,61a3.9,3.9,0,0,1-3.749-5.273A6.886,6.886,0,0,0,28,59a4,4,0,0,0,7.929.707A3.979,3.979,0,0,1,33,61Z" style="fill:#69cae6"/><path d="M45,54a3.9,3.9,0,0,1-3.749-5.273A6.886,6.886,0,0,0,40,52a4,4,0,0,0,7.929.707A3.979,3.979,0,0,1,45,54Z" style="fill:#69cae6"/><path d="M21,40a3.9,3.9,0,0,1-3.749-5.273A6.886,6.886,0,0,0,16,38a4,4,0,0,0,7.929.707A3.979,3.979,0,0,1,21,40Z" style="fill:#69cae6"/><path d="M21,54a3.9,3.9,0,0,1-3.749-5.273A6.886,6.886,0,0,0,16,52a4,4,0,0,0,7.929.707A3.979,3.979,0,0,1,21,54Z" style="fill:#69cae6"/><path d="M12.722,37.27C6.815,35.557,3,31.133,3,26a12.053,12.053,0,0,1,9.61-11.748A19.11,19.11,0,0,1,31,0,18.887,18.887,0,0,1,47.728,10.024a14,14,0,0,1,7.888,25.012l-1.232-1.577A12,12,0,0,0,47.1,12.005a1,1,0,0,1-.887-.554A16.907,16.907,0,0,0,31,2,17.09,17.09,0,0,0,14.406,15.339a1,1,0,0,1-.835.776A10.037,10.037,0,0,0,5,26c0,4.221,3.25,7.89,8.278,9.349Z"/><path d="M51.308,37.325l-.616-1.9a11.837,11.837,0,0,0,1.846-.773l.924,1.775A14.058,14.058,0,0,1,51.308,37.325Z"/><path d="M20,43a5.006,5.006,0,0,1-5-5c0-2.486,3.225-7,5-7s5,4.514,5,7A5.006,5.006,0,0,1,20,43Zm0-9.948c-.849.537-3,3.339-3,4.948a3,3,0,0,0,6,0C23,36.391,20.849,33.589,20,33.052Z"/><path d="M20,57a5.006,5.006,0,0,1-5-5c0-2.486,3.225-7,5-7s5,4.514,5,7A5.006,5.006,0,0,1,20,57Zm0-9.948c-.849.537-3,3.339-3,4.948a3,3,0,0,0,6,0C23,50.391,20.849,47.589,20,47.052Z"/><path d="M44,43a5.006,5.006,0,0,1-5-5c0-2.486,3.225-7,5-7s5,4.514,5,7A5.006,5.006,0,0,1,44,43Zm0-9.948c-.849.537-3,3.339-3,4.948a3,3,0,0,0,6,0C47,36.391,44.849,33.589,44,33.052Z"/><path d="M44,57a5.006,5.006,0,0,1-5-5c0-2.486,3.225-7,5-7s5,4.514,5,7A5.006,5.006,0,0,1,44,57Zm0-9.948c-.849.537-3,3.339-3,4.948a3,3,0,0,0,6,0C47,50.391,44.849,47.589,44,47.052Z"/><path d="M32,50a5.006,5.006,0,0,1-5-5c0-2.486,3.225-7,5-7s5,4.514,5,7A5.006,5.006,0,0,1,32,50Zm0-9.948c-.849.537-3,3.339-3,4.948a3,3,0,0,0,6,0C35,43.391,32.849,40.589,32,40.052Z"/><path d="M32,64a5.006,5.006,0,0,1-5-5c0-2.486,3.225-7,5-7s5,4.514,5,7A5.006,5.006,0,0,1,32,64Zm0-9.948c-.849.537-3,3.339-3,4.948a3,3,0,0,0,6,0C35,57.391,32.849,54.589,32,54.052Z"/></g></svg>