<svg xmlns="http://www.w3.org/2000/svg" viewBox="0 0 64 64"><g id="_06-Pour" data-name="06-Pour"><path d="M47,37a13,13,0,0,0,.109-25.994,17.982,17.982,0,0,0-33.68,4.119A10.993,10.993,0,0,0,4,26c0,6.075,6,11,14,11Z" style="fill:#b9b9bd"/><path d="M47.11,11H47a12.991,12.991,0,0,0-11.3,6.59A12,12,0,0,0,23.05,37H18C10,37,4,32.08,4,26a11,11,0,0,1,9.43-10.88A17.985,17.985,0,0,1,47.11,11Z" style="fill:#9b9b9e"/><path d="M16,27a5.828,5.828,0,0,1-7,3c-2.681-.874-4.271-3.333-4.8-6.085A11.009,11.009,0,0,0,4,26c0,6.08,6,11,14,11h5.05a12,12,0,0,1,7.29-19.872C23.63,17.152,19.179,21.437,16,27Z" style="fill:#7d7d80"/><path d="M35.143,17.422c.2.054.4.105.591.168A12.991,12.991,0,0,1,47.034,11h.11a18,18,0,0,0-1.111-1.908C37.581,9.876,35.573,15.574,35.143,17.422Z" style="fill:#7d7d80"/><path d="M53.109,44.34a1.987,1.987,0,0,1,.55,2.77l-8,12a2,2,0,0,1-3.32-2.22l8-12A1.987,1.987,0,0,1,53.109,44.34Z" style="fill:#80dbff"/><path d="M48.149,36.94,32.7,62.05A1.989,1.989,0,0,1,31,63a2.019,2.019,0,0,1-1.05-.3,2,2,0,0,1-.65-2.75L43.419,37H47A10.931,10.931,0,0,0,48.149,36.94Z" style="fill:#80dbff"/><path d="M36.12,37,20.7,62.05A1.989,1.989,0,0,1,19,63a2.019,2.019,0,0,1-1.05-.3,2,2,0,0,1-.65-2.75L31.42,37Z" style="fill:#80dbff"/><path d="M24.12,37,8.7,62.05A1.989,1.989,0,0,1,7,63a2.019,2.019,0,0,1-1.05-.3,2,2,0,0,1-.65-2.75L19.42,37Z" style="fill:#80dbff"/><path d="M9.111,39.34a1.987,1.987,0,0,1,.55,2.77l-4,6a2,2,0,0,1-3.32-2.22l4-6A1.987,1.987,0,0,1,9.111,39.34Z" style="fill:#80dbff"/><path d="M48.149,36.94A10.931,10.931,0,0,1,47,37h-3.58l-1.845,3h4.692Z" style="fill:#4ab8f7"/><polygon points="31.42 37 29.574 40 34.273 40 36.12 37 31.42 37" style="fill:#4ab8f7"/><polygon points="19.42 37 17.575 40 22.274 40 24.12 37 19.42 37" style="fill:#4ab8f7"/><path d="M47.729,10.028A18.893,18.893,0,0,0,31,0,19.106,19.106,0,0,0,12.609,14.248,12.065,12.065,0,0,0,3,26c0,6.631,6.4,11.836,14.639,11.986l-.916,1.49,1.7,1.048L19.979,38H22.33L7.845,61.531a1.011,1.011,0,0,1-1.369.318.988.988,0,0,1-.448-.619,1,1,0,0,1,.123-.756L17.2,42.524l-1.7-1.048L4.449,59.425a3,3,0,0,0,.984,4.131A3.035,3.035,0,0,0,7,64a3,3,0,0,0,2.552-1.426L24.679,38h4.952L16.449,59.425a3,3,0,0,0,.984,4.131A3.035,3.035,0,0,0,19,64a3,3,0,0,0,2.552-1.426L36.679,38h4.952L28.449,59.425a3,3,0,0,0,.984,4.131A3.035,3.035,0,0,0,31,64a3,3,0,0,0,2.552-1.426l5.568-9.05-1.7-1.048-5.572,9.055a1.011,1.011,0,0,1-1.369.318.988.988,0,0,1-.448-.619,1,1,0,0,1,.123-.756L43.979,38h2.345L38.647,50.476l1.7,1.048,8.4-13.652a13.824,13.824,0,0,0,3.634-.95l-.77-1.846a11.91,11.91,0,0,1-3.569.869A9.807,9.807,0,0,1,47,36H18C10.71,36,5,31.607,5,26a10.05,10.05,0,0,1,8.572-9.89,1,1,0,0,0,.834-.776A17.085,17.085,0,0,1,31,2a16.913,16.913,0,0,1,15.215,9.455,1,1,0,0,0,.887.555A12.03,12.03,0,0,1,59,24a11.875,11.875,0,0,1-2.541,7.384l1.574,1.232A13.847,13.847,0,0,0,61,24,14.037,14.037,0,0,0,47.729,10.028Zm-27.884,51.5a1.011,1.011,0,0,1-1.369.318.988.988,0,0,1-.448-.619,1,1,0,0,1,.123-.756L31.979,38H34.33Z"/><path d="M53.394,34.155l1.066,1.691A14.041,14.041,0,0,0,56.692,34.1l-1.384-1.442A12.114,12.114,0,0,1,53.394,34.155Z"/><path d="M53.665,43.505a3,3,0,0,0-4.161.831l-8,12A3,3,0,1,0,46.5,59.664l8-12A3,3,0,0,0,53.665,43.505Zm-.833,3.05-8,12a1.023,1.023,0,0,1-1.387.278,1,1,0,0,1-.277-1.387l8-12a1,1,0,1,1,1.664,1.109Z"/><path d="M6.5,48.664l4-6A3,3,0,1,0,5.5,39.337l-4,6A3,3,0,1,0,6.5,48.664Zm-3.051-.832a1,1,0,0,1-.277-1.386l4-6A.989.989,0,0,1,7.8,40.02.941.941,0,0,1,8,40a1,1,0,0,1,.831,1.556l-4,6A1.022,1.022,0,0,1,3.445,47.832Z"/></g></svg>