<svg xmlns="http://www.w3.org/2000/svg" viewBox="0 0 64 64"><g id="_07-Storms" data-name="07-Storms"><path d="M47,37a13,13,0,0,0,.109-25.994,17.982,17.982,0,0,0-33.68,4.119A10.993,10.993,0,0,0,4,26c0,6.075,6,11,14,11Z" style="fill:#b9b9bd"/><path d="M47.11,11H47a12.991,12.991,0,0,0-11.3,6.59A12,12,0,0,0,23.05,37H18C10,37,4,32.08,4,26a11,11,0,0,1,9.43-10.88A17.985,17.985,0,0,1,47.11,11Z" style="fill:#9b9b9e"/><path d="M16,27a5.828,5.828,0,0,1-7,3c-2.681-.874-4.271-3.333-4.8-6.085A11.009,11.009,0,0,0,4,26c0,6.08,6,11,14,11h5.05a12,12,0,0,1,7.29-19.872C23.63,17.152,19.179,21.437,16,27Z" style="fill:#7d7d80"/><path d="M35.143,17.422c.2.054.4.105.591.168A12.991,12.991,0,0,1,47.034,11h.11a18,18,0,0,0-1.111-1.908C37.581,9.876,35.573,15.574,35.143,17.422Z" style="fill:#7d7d80"/><polygon points="28 63 34 45 21 45 37 21 30 41 43 41 28 63" style="fill:#ffdc78"/><path d="M47,38H40V36h7a12,12,0,0,0,.1-23.995,1,1,0,0,1-.887-.554A16.906,16.906,0,0,0,31,2,17.091,17.091,0,0,0,14.406,15.339a1,1,0,0,1-.835.776A10.037,10.037,0,0,0,5,26c0,5.607,5.71,10,13,10h3v2H18C9.589,38,3,32.729,3,26a12.053,12.053,0,0,1,9.609-11.748A19.112,19.112,0,0,1,31,0,18.887,18.887,0,0,1,47.728,10.024,14,14,0,0,1,47,38Z"/><rect x="36" y="36" width="2" height="2"/><path d="M28,64a1,1,0,0,1-.949-1.316L32.613,46H21a1,1,0,0,1-.832-1.555l16-24a1,1,0,0,1,1.776.886L31.41,40H43a1,1,0,0,1,.826,1.563l-15,22A1,1,0,0,1,28,64ZM22.869,44H34a1,1,0,0,1,.949,1.316L31.22,56.5,41.108,42H30a1,1,0,0,1-.944-1.331l4.385-12.528Z"/></g></svg>