<svg xmlns="http://www.w3.org/2000/svg" viewBox="0 0 64 64"><g id="_09-Snow" data-name="09-Snow"><path d="M47,37a13,13,0,0,0,.109-25.994,17.982,17.982,0,0,0-33.68,4.119A10.993,10.993,0,0,0,4,26c0,6.075,6,11,14,11Z" style="fill:#e4e4e9"/><path d="M47.11,11H47a12.991,12.991,0,0,0-11.3,6.59A12,12,0,0,0,23.05,37H18C10,37,4,32.08,4,26a11,11,0,0,1,9.43-10.88A17.985,17.985,0,0,1,47.11,11Z" style="fill:#d2d2d6"/><path d="M16,27a5.828,5.828,0,0,1-7,3c-2.681-.874-4.271-3.333-4.8-6.085A11.009,11.009,0,0,0,4,26c0,6.08,6,11,14,11h5.05a12,12,0,0,1,7.29-19.872C23.63,17.152,19.179,21.437,16,27Z" style="fill:#b9b9bd"/><path d="M35.143,17.422c.2.054.4.105.591.168A12.991,12.991,0,0,1,47.034,11h.11a18,18,0,0,0-1.111-1.908C37.581,9.876,35.573,15.574,35.143,17.422Z" style="fill:#b9b9bd"/><circle cx="43" cy="46" r="2" style="fill:#dbf7ff"/><circle cx="46" cy="56" r="2" style="fill:#dbf7ff"/><circle cx="32" cy="52" r="2" style="fill:#dbf7ff"/><circle cx="32" cy="61" r="2" style="fill:#dbf7ff"/><circle cx="18" cy="56" r="2" style="fill:#dbf7ff"/><circle cx="21" cy="46" r="2" style="fill:#dbf7ff"/><circle cx="32" cy="37" r="3" style="fill:#f0faff"/><path d="M47.728,10.024A18.887,18.887,0,0,0,31,0,19.112,19.112,0,0,0,12.609,14.252,12.053,12.053,0,0,0,3,26c0,6.729,6.589,12,15,12h3V36H18C10.71,36,5,31.607,5,26a10.037,10.037,0,0,1,8.571-9.885,1,1,0,0,0,.835-.776A17.091,17.091,0,0,1,31,2a16.906,16.906,0,0,1,15.214,9.451,1,1,0,0,0,.887.554A12,12,0,0,1,47,36v2a14,14,0,0,0,.728-27.976Z"/><rect x="43" y="36" width="2" height="2"/><path d="M35.858,38H41V36H35.858a3.915,3.915,0,0,0-.425-1.019l2.224-2.224-1.414-1.414-2.224,2.224A3.915,3.915,0,0,0,33,33.142V28H31v5.142a3.915,3.915,0,0,0-1.019.425l-2.224-2.224-1.414,1.414,2.224,2.224A3.915,3.915,0,0,0,28.142,36H23v2h5.142a3.915,3.915,0,0,0,.425,1.019l-2.224,2.224,1.414,1.414,2.224-2.224A3.915,3.915,0,0,0,31,40.858V46h2V40.858a3.915,3.915,0,0,0,1.019-.425l2.224,2.224,1.414-1.414-2.224-2.224A3.915,3.915,0,0,0,35.858,38ZM32,39a2,2,0,1,1,2-2A2,2,0,0,1,32,39Z"/><path d="M46,46a3,3,0,1,0-3,3A3,3,0,0,0,46,46Zm-4,0a1,1,0,1,1,1,1A1,1,0,0,1,42,46Z"/><path d="M32,49a3,3,0,1,0,3,3A3,3,0,0,0,32,49Zm0,4a1,1,0,1,1,1-1A1,1,0,0,1,32,53Z"/><path d="M21,43a3,3,0,1,0,3,3A3,3,0,0,0,21,43Zm0,4a1,1,0,1,1,1-1A1,1,0,0,1,21,47Z"/><path d="M18,53a3,3,0,1,0,3,3A3,3,0,0,0,18,53Zm0,4a1,1,0,1,1,1-1A1,1,0,0,1,18,57Z"/><path d="M46,53a3,3,0,1,0,3,3A3,3,0,0,0,46,53Zm0,4a1,1,0,1,1,1-1A1,1,0,0,1,46,57Z"/><path d="M32,58a3,3,0,1,0,3,3A3,3,0,0,0,32,58Zm0,4a1,1,0,1,1,1-1A1,1,0,0,1,32,62Z"/></g></svg>