<svg xmlns="http://www.w3.org/2000/svg" viewBox="0 0 64 64"><g id="_10-Sleet" data-name="10-Sleet"><path d="M47,37a13,13,0,0,0,.109-25.994,17.982,17.982,0,0,0-33.68,4.119A10.993,10.993,0,0,0,4,26c0,6.075,6,11,14,11Z" style="fill:#d2d2d6"/><path d="M47.11,11H47a12.991,12.991,0,0,0-11.3,6.59A12,12,0,0,0,23.05,37H18C10,37,4,32.08,4,26a11,11,0,0,1,9.43-10.88A17.985,17.985,0,0,1,47.11,11Z" style="fill:#b9b9bd"/><path d="M16,27a5.828,5.828,0,0,1-7,3c-2.681-.874-4.271-3.333-4.8-6.085A11.009,11.009,0,0,0,4,26c0,6.08,6,11,14,11h5.05a12,12,0,0,1,7.29-19.872C23.63,17.152,19.179,21.437,16,27Z" style="fill:#9b9b9e"/><path d="M35.143,17.422c.2.054.4.105.591.168A12.991,12.991,0,0,1,47.034,11h.11a18,18,0,0,0-1.111-1.908C37.581,9.876,35.573,15.574,35.143,17.422Z" style="fill:#9b9b9e"/><circle cx="40" cy="29" r="3" style="fill:#f0faff"/><circle cx="28" cy="41" r="3" style="fill:#dbf7ff"/><path d="M3,56.739H3a1.917,1.917,0,0,1-.732-2.657l1-1.685A2.031,2.031,0,0,1,6,51.685H6a1.916,1.916,0,0,1,.732,2.657l-1,1.685A2.031,2.031,0,0,1,3,56.739Z" style="fill:#83d9f2"/><path d="M8,48.315H8a1.916,1.916,0,0,1-.732-2.657l1-1.685A2.031,2.031,0,0,1,11,43.261h0a1.917,1.917,0,0,1,.732,2.657l-1,1.685A2.031,2.031,0,0,1,8,48.315Z" style="fill:#83d9f2"/><path d="M11,62.739h0a1.917,1.917,0,0,1-.732-2.657l1-1.685A2.031,2.031,0,0,1,14,57.685h0a1.916,1.916,0,0,1,.732,2.657l-1,1.685A2.031,2.031,0,0,1,11,62.739Z" style="fill:#83d9f2"/><path d="M16,54.315h0a1.916,1.916,0,0,1-.732-2.657l1-1.685A2.031,2.031,0,0,1,19,49.261h0a1.917,1.917,0,0,1,.732,2.657l-1,1.685A2.031,2.031,0,0,1,16,54.315Z" style="fill:#83d9f2"/><path d="M39,56.739h0a1.917,1.917,0,0,1-.732-2.657l1-1.685A2.031,2.031,0,0,1,42,51.685h0a1.916,1.916,0,0,1,.732,2.657l-1,1.685A2.031,2.031,0,0,1,39,56.739Z" style="fill:#83d9f2"/><path d="M44,48.315h0a1.916,1.916,0,0,1-.732-2.657l1-1.685A2.031,2.031,0,0,1,47,43.261h0a1.917,1.917,0,0,1,.732,2.657l-1,1.685A2.031,2.031,0,0,1,44,48.315Z" style="fill:#83d9f2"/><path d="M26,62.739h0a1.917,1.917,0,0,1-.732-2.657l1-1.685A2.031,2.031,0,0,1,29,57.685h0a1.916,1.916,0,0,1,.732,2.657l-1,1.685A2.031,2.031,0,0,1,26,62.739Z" style="fill:#83d9f2"/><path d="M47,62.739h0a1.917,1.917,0,0,1-.732-2.657l1-1.685A2.031,2.031,0,0,1,50,57.685h0a1.916,1.916,0,0,1,.732,2.657l-1,1.685A2.031,2.031,0,0,1,47,62.739Z" style="fill:#83d9f2"/><path d="M52,54.315h0a1.916,1.916,0,0,1-.732-2.657l1-1.685A2.031,2.031,0,0,1,55,49.261h0a1.917,1.917,0,0,1,.732,2.657l-1,1.685A2.031,2.031,0,0,1,52,54.315Z" style="fill:#83d9f2"/><rect x="19" y="36" width="2" height="2"/><path d="M16.948,37.973l.1-2C10.182,35.617,5,31.329,5,26a10.037,10.037,0,0,1,8.571-9.885,1,1,0,0,0,.835-.776A17.09,17.09,0,0,1,31,2a16.907,16.907,0,0,1,15.214,9.451,1,1,0,0,0,.887.554,12,12,0,0,1,1.747,23.854l.3,1.976a14,14,0,0,0-1.424-27.811A18.887,18.887,0,0,0,31,0,19.11,19.11,0,0,0,12.61,14.252,12.053,12.053,0,0,0,3,26C3,32.411,9,37.558,16.948,37.973Z"/><path d="M49,30V28H43.858a3.915,3.915,0,0,0-.425-1.019l2.224-2.224-1.414-1.414-2.224,2.224A3.915,3.915,0,0,0,41,25.142V20H39v5.142a3.915,3.915,0,0,0-1.019.425l-2.224-2.224-1.414,1.414,2.224,2.224A3.915,3.915,0,0,0,36.142,28H31v2h5.142a3.915,3.915,0,0,0,.425,1.019l-2.224,2.224,1.414,1.414,2.224-2.224A3.915,3.915,0,0,0,39,32.858V38h2V32.858a3.915,3.915,0,0,0,1.019-.425l2.224,2.224,1.414-1.414-2.224-2.224A3.915,3.915,0,0,0,43.858,30Zm-9,1a2,2,0,1,1,2-2A2,2,0,0,1,40,31Z"/><path d="M31.433,38.981l2.224-2.224-1.414-1.414-2.224,2.224A3.915,3.915,0,0,0,29,37.142V32H27v5.142a3.915,3.915,0,0,0-1.019.425l-2.224-2.224-1.414,1.414,2.224,2.224A3.915,3.915,0,0,0,24.142,40H19v2h5.142a3.915,3.915,0,0,0,.425,1.019l-2.224,2.224,1.414,1.414,2.224-2.224A3.915,3.915,0,0,0,27,44.858V50h2V44.858a3.915,3.915,0,0,0,1.019-.425l2.224,2.224,1.414-1.414-2.224-2.224A3.915,3.915,0,0,0,31.858,42H37V40H31.858A3.915,3.915,0,0,0,31.433,38.981ZM28,43a2,2,0,1,1,2-2A2,2,0,0,1,28,43Z"/><path d="M6.49,50.812a3.038,3.038,0,0,0-4.082,1.075l-1,1.684A2.881,2.881,0,0,0,1.1,55.8,2.932,2.932,0,0,0,2.51,57.611h0a3.04,3.04,0,0,0,4.082-1.074l1-1.685A2.882,2.882,0,0,0,7.9,52.62,2.936,2.936,0,0,0,6.49,50.812Zm-.618,3.02-1,1.684a1.028,1.028,0,0,1-1.384.351.95.95,0,0,1-.458-.581.9.9,0,0,1,.1-.694l1-1.685a1.023,1.023,0,0,1,1.381-.35.951.951,0,0,1,.46.581A.9.9,0,0,1,5.872,53.832Z"/><path d="M11.592,48.113l1-1.684A2.881,2.881,0,0,0,12.9,44.2a2.93,2.93,0,0,0-1.412-1.809,3.04,3.04,0,0,0-4.082,1.074l-1,1.685A2.882,2.882,0,0,0,6.1,47.38,2.936,2.936,0,0,0,7.51,49.188a3.042,3.042,0,0,0,4.082-1.075Zm-.721-2.7-1,1.685a1.026,1.026,0,0,1-1.381.35.951.951,0,0,1-.46-.581.9.9,0,0,1,.1-.694l1-1.684A1.008,1.008,0,0,1,10,44a1.045,1.045,0,0,1,.511.133.953.953,0,0,1,.459.582A.9.9,0,0,1,10.871,45.408Z"/><path d="M14.49,56.812a3.039,3.039,0,0,0-4.082,1.075l-1,1.684A2.881,2.881,0,0,0,9.1,61.8a2.932,2.932,0,0,0,1.411,1.809h0a3.04,3.04,0,0,0,4.082-1.074l1-1.685A2.882,2.882,0,0,0,15.9,58.62,2.936,2.936,0,0,0,14.49,56.812Zm-.618,3.02-1,1.684a1.029,1.029,0,0,1-1.384.351.95.95,0,0,1-.458-.581.9.9,0,0,1,.1-.694l1-1.685a1.023,1.023,0,0,1,1.381-.35.951.951,0,0,1,.46.581A.9.9,0,0,1,13.872,59.832Z"/><path d="M19.489,48.389a3.039,3.039,0,0,0-4.082,1.074l-1,1.685A2.882,2.882,0,0,0,14.1,53.38a2.936,2.936,0,0,0,1.411,1.808,3.042,3.042,0,0,0,4.082-1.075l1-1.684A2.881,2.881,0,0,0,20.9,50.2,2.93,2.93,0,0,0,19.489,48.389Zm-.618,3.019-1,1.685a1.025,1.025,0,0,1-1.381.35.951.951,0,0,1-.46-.581.9.9,0,0,1,.1-.694l1-1.684A1.008,1.008,0,0,1,18,50a1.045,1.045,0,0,1,.511.133.953.953,0,0,1,.459.582A.9.9,0,0,1,18.871,51.408Z"/><path d="M42.49,50.812a3.038,3.038,0,0,0-4.082,1.075l-1,1.684A2.881,2.881,0,0,0,37.1,55.8a2.932,2.932,0,0,0,1.411,1.809h0a3.04,3.04,0,0,0,4.082-1.074l1-1.685A2.882,2.882,0,0,0,43.9,52.62,2.936,2.936,0,0,0,42.49,50.812Zm-.618,3.02-1,1.684a1.028,1.028,0,0,1-1.384.351.95.95,0,0,1-.458-.581.9.9,0,0,1,.1-.694l1-1.685a1.023,1.023,0,0,1,1.381-.35.951.951,0,0,1,.46.581A.9.9,0,0,1,41.872,53.832Z"/><path d="M47.592,48.113l1-1.684A2.881,2.881,0,0,0,48.9,44.2a2.93,2.93,0,0,0-1.412-1.809,3.04,3.04,0,0,0-4.082,1.074l-1,1.685A2.882,2.882,0,0,0,42.1,47.38a2.936,2.936,0,0,0,1.411,1.808,3.042,3.042,0,0,0,4.082-1.075Zm-.721-2.7-1,1.685a1.026,1.026,0,0,1-1.381.35.951.951,0,0,1-.46-.581.9.9,0,0,1,.1-.694l1-1.684A1.008,1.008,0,0,1,46,44a1.045,1.045,0,0,1,.511.133.953.953,0,0,1,.459.582A.9.9,0,0,1,46.871,45.408Z"/><path d="M29.49,56.812a3.039,3.039,0,0,0-4.082,1.075l-1,1.684A2.881,2.881,0,0,0,24.1,61.8a2.932,2.932,0,0,0,1.411,1.809h0a3.04,3.04,0,0,0,4.082-1.074l1-1.685A2.882,2.882,0,0,0,30.9,58.62,2.936,2.936,0,0,0,29.49,56.812Zm-.618,3.02-1,1.684a1.029,1.029,0,0,1-1.384.351.95.95,0,0,1-.458-.581.9.9,0,0,1,.1-.694l1-1.685a1.023,1.023,0,0,1,1.381-.35.951.951,0,0,1,.46.581A.9.9,0,0,1,28.872,59.832Z"/><path d="M50.49,56.812a3.038,3.038,0,0,0-4.082,1.075l-1,1.684A2.881,2.881,0,0,0,45.1,61.8a2.932,2.932,0,0,0,1.411,1.809h0a3.04,3.04,0,0,0,4.082-1.074l1-1.685A2.882,2.882,0,0,0,51.9,58.62,2.936,2.936,0,0,0,50.49,56.812Zm-.618,3.02-1,1.684a1.029,1.029,0,0,1-1.384.351.95.95,0,0,1-.458-.581.9.9,0,0,1,.1-.694l1-1.685a1.023,1.023,0,0,1,1.381-.35.951.951,0,0,1,.46.581A.9.9,0,0,1,49.872,59.832Z"/><path d="M55.489,48.389a3.039,3.039,0,0,0-4.082,1.074l-1,1.685A2.882,2.882,0,0,0,50.1,53.38a2.936,2.936,0,0,0,1.411,1.808,3.042,3.042,0,0,0,4.082-1.075l1-1.684A2.881,2.881,0,0,0,56.9,50.2,2.93,2.93,0,0,0,55.489,48.389Zm-.618,3.019-1,1.685a1.025,1.025,0,0,1-1.381.35.951.951,0,0,1-.46-.581.9.9,0,0,1,.1-.694l1-1.684A1.008,1.008,0,0,1,54,50a1.045,1.045,0,0,1,.511.133.953.953,0,0,1,.459.582A.9.9,0,0,1,54.871,51.408Z"/></g></svg>