<svg xmlns="http://www.w3.org/2000/svg" viewBox="0 0 64 64"><g id="_11-Partly_Cloudy" data-name="11-Partly Cloudy"><circle cx="19" cy="24" r="11" style="fill:#ffb145"/><path d="M21,31A10.964,10.964,0,0,1,10.378,17.182a10.993,10.993,0,1,0,19.244,9.636A10.974,10.974,0,0,1,21,31Z" style="fill:#fca124"/><path d="M51.491,34.894A16.064,16.064,0,0,0,37.107,26C29.42,26,24.584,30.821,23,38A10,10,0,0,0,13,48c0,6,5.357,10,12.5,10H51.393a11.553,11.553,0,1,0,.1-23.106Z" style="fill:#83d9f2"/><path d="M45,55a8.8,8.8,0,0,1-.52,3H25.5c-6.05,0-10.82-2.87-12.14-7.41a3.166,3.166,0,0,1-.12-.44c-.04-.17-.07-.34-.1-.52a5.969,5.969,0,0,1-.09-.61c-.03-.33-.05-.67-.05-1.02a10,10,0,0,1,19.89-1.43A8.9,8.9,0,0,1,36,46,9,9,0,0,1,45,55Z" style="fill:#a4eaff"/><path d="M47.977,53.046A9.489,9.489,0,0,0,36.546,44.2,12.5,12.5,0,0,0,24.5,35c-.2,0-.4.021-.595.03A19.913,19.913,0,0,0,23,38a9.993,9.993,0,0,1,9.769,7.936c.044.21.09.419.121.634A8.9,8.9,0,0,1,36,46a9.1,9.1,0,0,1,.909.046A9,9,0,0,1,45,55a8.8,8.8,0,0,1-.52,3h6.913a11.584,11.584,0,0,0,11.462-9.816C57.083,55.735,51.335,54.723,47.977,53.046Z" style="fill:#69cae6"/><path d="M19,36A12,12,0,1,1,31,24H29A10,10,0,1,0,19,34Z"/><rect x="18" y="6" width="2" height="4"/><rect x="1" y="23" width="4" height="2"/><rect x="6.687" y="10.686" width="2" height="4" transform="translate(-6.719 9.15) rotate(-44.995)"/><rect x="5.687" y="34.314" width="4" height="2" transform="translate(-22.719 15.778) rotate(-45)"/><rect x="28.314" y="11.686" width="4" height="2" transform="translate(-0.092 25.151) rotate(-45)"/><path d="M24.837,35.366l-1.861-.733a18,18,0,0,1,.994-2.118l1.75.97A15.8,15.8,0,0,0,24.837,35.366Z"/><path d="M26.171,31h0" style="fill:none"/><path d="M51.393,59H25.5C17.678,59,12,54.374,12,48a11,11,0,0,1,22,0H32a9,9,0,0,0-18,0c0,5.3,4.729,9,11.5,9H51.393a10.553,10.553,0,1,0,.089-21.106,1,1,0,0,1-.886-.553A15,15,0,0,0,37.107,27a12.423,12.423,0,0,0-10.152,4.62l-1.568-1.241A14.354,14.354,0,0,1,37.107,25a16.974,16.974,0,0,1,15,8.914A12.552,12.552,0,0,1,51.393,59Z"/></g></svg>