<svg xmlns="http://www.w3.org/2000/svg" viewBox="0 0 64 64"><g id="_12-Cloudy" data-name="12-Cloudy"><path d="M44,43a13,13,0,0,0,.109-25.994,17.982,17.982,0,0,0-33.68,4.119A10.993,10.993,0,0,0,1,32c0,6.075,6,11,14,11Z" style="fill:#a4eaff"/><path d="M44.11,17H44a12.991,12.991,0,0,0-11.3,6.59A12,12,0,0,0,20.05,43H15C7,43,1,38.08,1,32a11,11,0,0,1,9.43-10.88A17.985,17.985,0,0,1,44.11,17Z" style="fill:#83d9f2"/><path d="M13,33a5.828,5.828,0,0,1-7,3c-2.681-.874-4.271-3.333-4.8-6.085A11.009,11.009,0,0,0,1,32c0,6.08,6,11,14,11h5.05a12,12,0,0,1,7.29-19.872C20.63,23.152,16.179,27.437,13,33Z" style="fill:#69cae6"/><path d="M32.143,23.422c.2.054.4.105.591.168A12.991,12.991,0,0,1,44.034,17h.11a18,18,0,0,0-1.111-1.908C34.581,15.876,32.573,21.574,32.143,23.422Z" style="fill:#69cae6"/><path d="M53,37c-.2,0-.4.018-.6.03a11.984,11.984,0,0,0-22.234,4.064h0c-.173-.025-.348-.048-.525-.062C29.429,41.013,29.216,41,29,41a8,8,0,0,0,0,16H53a10,10,0,0,0,0-20Z" style="fill:#c2f1ff"/><path d="M49,53a7.851,7.851,0,0,1-1.08,4H29a8,8,0,0,1,0-16,7.492,7.492,0,0,1,1.17.09,8,8,0,0,1,6.37,5.27A8,8,0,0,1,49,53Z" style="fill:#d9f6ff"/><path d="M31,39c-.1,0-.2.01-.306.015a11.942,11.942,0,0,0-.524,2.075,8,8,0,0,1,6.37,5.27c.112-.075.231-.138.347-.207A6.075,6.075,0,0,0,37,45,6,6,0,0,0,31,39Z" style="fill:#b2deeb"/><path d="M57,53a4.83,4.83,0,0,1-2.732-.084A4.983,4.983,0,0,1,53.2,52.4a.511.511,0,0,1-.3-.435c-.039-.237-.041-.479-.087-.714a9.192,9.192,0,0,0-.243-.954,8.93,8.93,0,0,0-.774-1.77A8.967,8.967,0,0,0,44,44a8.935,8.935,0,0,0-4.33,1.11A8.326,8.326,0,0,1,41,45a8,8,0,0,1,8,8,7.851,7.851,0,0,1-1.08,4H53a10,10,0,0,0,9.933-8.874C62.568,48.791,60.594,52.1,57,53Z" style="fill:#b2deeb"/><rect x="17" y="42" width="2" height="2"/><path d="M15,44C6.589,44,0,38.729,0,32A12.053,12.053,0,0,1,9.61,20.252,19.11,19.11,0,0,1,28,6,18.887,18.887,0,0,1,44.728,16.024a14,14,0,0,1,12.6,18.284l-1.9-.616A12.007,12.007,0,0,0,44.1,18.005a1,1,0,0,1-.887-.554A16.907,16.907,0,0,0,28,8,17.09,17.09,0,0,0,11.406,21.339a1,1,0,0,1-.835.776A10.037,10.037,0,0,0,2,32c0,5.607,5.71,10,13,10Z"/><path d="M53,58H29a9,9,0,1,1,1.311-17.9l-.29,1.98A7,7,0,1,0,29,56H53a9,9,0,0,0,0-18c-.125,0-.248.009-.371.018l-.17.01a.992.992,0,0,1-.925-.5,10.979,10.979,0,0,0-16.865-2.72l-1.338-1.488A12.979,12.979,0,0,1,52.944,36H53a11,11,0,0,1,0,22Z"/><path d="M32.013,38.416l-1.819-.832a12.989,12.989,0,0,1,1.26-2.168l1.623,1.168A11.011,11.011,0,0,0,32.013,38.416Z"/><path d="M38,49H36a7,7,0,0,0-14,0H20a9,9,0,0,1,18,0Z"/></g></svg>