<svg xmlns="http://www.w3.org/2000/svg" viewBox="0 0 64 64"><g id="_13-Scattered_T-Storms" data-name="13-Scattered T-Storms"><circle cx="16" cy="16" r="9" style="fill:#ffb145"/><path d="M25,16a8.96,8.96,0,0,0-2.132-5.81A16.587,16.587,0,0,0,19,18a9.988,9.988,0,0,0-8.651,5A9,9,0,0,0,25,16Z" style="fill:#fc9508"/><path d="M51.491,16.894A16.064,16.064,0,0,0,37.107,8C29.42,8,24.584,12.821,23,20A10,10,0,0,0,13,30c0,6,5.357,10,12.5,10H51.393a11.553,11.553,0,1,0,.1-23.106Z" style="fill:#9b9b9e"/><path d="M45,37a8.8,8.8,0,0,1-.52,3H25.5c-6.05,0-10.82-2.87-12.14-7.41a3.166,3.166,0,0,1-.12-.44c-.04-.17-.07-.34-.1-.52a5.969,5.969,0,0,1-.09-.61c-.03-.33-.05-.67-.05-1.02a10,10,0,0,1,19.89-1.43A8.9,8.9,0,0,1,36,28,9,9,0,0,1,45,37Z" style="fill:#b9b9bd"/><path d="M47.977,35.046A9.489,9.489,0,0,0,36.546,26.2,12.5,12.5,0,0,0,24.5,17c-.2,0-.4.021-.595.03A19.913,19.913,0,0,0,23,20a9.993,9.993,0,0,1,9.769,7.936c.044.21.09.419.121.634A8.9,8.9,0,0,1,36,28a9.1,9.1,0,0,1,.909.046A9,9,0,0,1,45,37a8.8,8.8,0,0,1-.52,3h6.913a11.584,11.584,0,0,0,11.462-9.816C57.083,37.735,51.335,36.723,47.977,35.046Z" style="fill:#7d7d80"/><polygon points="30 63 33 54 28 54 38 43 35 51 40 51 30 63" style="fill:#ffdc78"/><rect x="42.102" y="51.31" width="10.486" height="2" transform="translate(-20.616 71.263) rotate(-63.435)"/><rect x="51.412" y="50.689" width="10.486" height="2" transform="translate(-14.914 79.247) rotate(-63.435)"/><rect x="7.102" y="51.31" width="10.486" height="2" transform="translate(-39.964 39.958) rotate(-63.435)"/><rect x="16.412" y="50.689" width="10.486" height="2" transform="translate(-34.262 47.942) rotate(-63.435)"/><path d="M30,64a1,1,0,0,1-.949-1.316L31.613,55H28a1,1,0,0,1-.74-1.673l10-11a1,1,0,0,1,1.677,1.025L36.443,50H40a1,1,0,0,1,.768,1.641l-10,12A1,1,0,0,1,30,64Zm.261-11H33a1,1,0,0,1,.949,1.316l-1.324,3.972L37.865,52H35a1,1,0,0,1-.937-1.352l1.17-3.118Z"/><path d="M24.837,17.365l-1.861-.731a17.958,17.958,0,0,1,.993-2.118l1.75.968A15.913,15.913,0,0,0,24.837,17.365Z"/><path d="M51.393,41H25.5c-4.375,0-8.151-1.4-10.635-3.938A9.911,9.911,0,0,1,12,29.754,11,11,0,0,1,34,30H32a9,9,0,0,0-18-.2,7.958,7.958,0,0,0,2.292,5.866A12.852,12.852,0,0,0,25.5,39H51.393a10.553,10.553,0,1,0,.089-21.106,1,1,0,0,1-.886-.553A15,15,0,0,0,37.107,9,12.392,12.392,0,0,0,26.8,13.826L25.2,12.617A14.322,14.322,0,0,1,37.107,7a16.978,16.978,0,0,1,15,8.914A12.552,12.552,0,0,1,51.393,41Z"/><rect x="1" y="15" width="4" height="2"/><path d="M9.714,23.777A10,10,0,1,1,23.777,9.714l-1.554,1.258A8,8,0,1,0,10.972,22.223Z"/><rect x="15" y="1" width="2" height="4"/><rect x="23.193" y="5.808" width="4" height="2" transform="translate(2.565 19.808) rotate(-45)"/><rect x="4.808" y="24.192" width="4" height="2" transform="translate(-15.82 12.192) rotate(-45)"/><rect x="5.808" y="4.808" width="2" height="4" transform="translate(-2.82 6.808) rotate(-45)"/></g></svg>