<svg xmlns="http://www.w3.org/2000/svg" viewBox="0 0 64 64"><g id="_15-Sun" data-name="15-Sun"><circle cx="32" cy="32" r="20" style="fill:#ffb145"/><path d="M36,44A19.93,19.93,0,0,1,16.591,19.252a19.993,19.993,0,1,0,34.818,17.5A19.956,19.956,0,0,1,36,44Z" style="fill:#fca124"/><path d="M50.788,29.149a19.033,19.033,0,0,0-.387-1.9l1.938-.5a20.994,20.994,0,0,1,.426,2.1Z"/><path d="M11.961,38.3A21.006,21.006,0,0,1,51.677,24.65l-1.873.7A19.006,19.006,0,0,0,13.87,37.7Z"/><path d="M32,53A21.007,21.007,0,0,1,12.748,40.4l1.833-.8A19,19,0,0,0,51,32q0-.478-.023-.951l2-.1c.016.347.025.7.025,1.049A21.024,21.024,0,0,1,32,53Z"/><rect x="31" y="1" width="2" height="8"/><rect x="31" y="55" width="2" height="8"/><rect x="55" y="31" width="8" height="2"/><rect x="1" y="31" width="8" height="2"/><rect x="50.092" y="47.092" width="2" height="7.999" transform="translate(-21.163 51.095) rotate(-45.002)"/><rect x="11.908" y="8.908" width="2" height="8" transform="translate(-5.347 12.908) rotate(-45)"/><rect x="8.908" y="50.092" width="7.999" height="2" transform="translate(-32.347 24.092) rotate(-45)"/><rect x="47.092" y="11.908" width="8" height="2" transform="translate(5.837 39.908) rotate(-45)"/></g></svg>