<svg xmlns="http://www.w3.org/2000/svg" viewBox="0 0 64 64"><g id="_17-fair_weather" data-name="17-fair weather"><path d="M63,44c-4,7-13.18,11-22,11A26,26,0,0,1,15,29,26.362,26.362,0,0,1,39,3a26.435,26.435,0,0,0-5,15A26,26,0,0,0,60,44Z" style="fill:#ffdc78"/><path d="M21,27A26.254,26.254,0,0,1,36.111,3.424,26.351,26.351,0,0,0,15,29,26,26,0,0,0,41,55a29.985,29.985,0,0,0,12.409-2.7A30.249,30.249,0,0,1,47,53,26,26,0,0,1,21,27Z" style="fill:#ffb145"/><path d="M45.17,24.03a6.5,6.5,0,0,1,12.35-.98A3.906,3.906,0,0,1,58,23a5,5,0,0,1,0,10H46c-3,0-5-2.01-5-4.5A4.488,4.488,0,0,1,45.17,24.03Z" style="fill:#ccf3ff"/><path d="M49.732,27.023A4.471,4.471,0,0,1,53.081,28.8,4.92,4.92,0,0,1,53,28a4.984,4.984,0,0,1,4.519-4.952,6.5,6.5,0,0,0-12.349.982c-.017,0-.032.007-.048.008.127-.011.248-.038.378-.038A4.488,4.488,0,0,1,49.732,27.023Z" style="fill:#b5eeff"/><path d="M46.5,23a3.467,3.467,0,0,0-1.054.179,6.309,6.309,0,0,0-.276.851c-.017,0-.032.007-.048.008.127-.011.248-.038.378-.038a4.488,4.488,0,0,1,4.232,3.023c.072,0,.142.016.213.023A3.431,3.431,0,0,0,46.5,23Z" style="fill:#9ee2f7"/><path d="M52.011,27.787a4.521,4.521,0,0,1,1.07,1.014A4.92,4.92,0,0,1,53,28a4.984,4.984,0,0,1,4.519-4.952c-.01-.024-.025-.046-.035-.07a6.426,6.426,0,0,0-.463-.891A5.991,5.991,0,0,0,52.011,27.787Z" style="fill:#9ee2f7"/><path d="M9.18,45a11.985,11.985,0,0,1,23.13-1.98A8.993,8.993,0,0,1,32,61H9A8,8,0,0,1,9,45c.06,0,.12.01.18.01Z" style="fill:#c2f1ff"/><path d="M25.18,61h-16c-.14,0-.28,0-.41-.01a7.993,7.993,0,0,1,0-15.98c.09,0,.18-.01.28-.01.04,0,.09.01.13.01V45a8,8,0,0,1,8,8A8,8,0,0,1,25.18,61Z" style="fill:#d9f6ff"/><path d="M41,52a9,9,0,0,1-9,9H25.18a8.239,8.239,0,0,0-.25-2,8.361,8.361,0,0,0-.33-1,8.008,8.008,0,0,0-7.42-5,8,8,0,0,0-8-8,11.652,11.652,0,0,1,.48-1.87,6.734,6.734,0,0,1,1.11-.12c.09,0,.18-.01.28-.01.04,0,.09.01.13.01V43a8,8,0,0,1,8,8,8,8,0,0,1,7.65,5.644A1.966,1.966,0,0,0,28.721,58H31.48a9.708,9.708,0,0,0,9.42-7.36A10.122,10.122,0,0,1,41,52Z" style="fill:#b2deeb"/><path d="M42.933,53.934l.134,2c.688-.047,1.383-.118,2.067-.209l-.268-1.983C44.227,53.825,43.576,53.891,42.933,53.934Z"/><path d="M63,43H60A25.028,25.028,0,0,1,35,18,25.538,25.538,0,0,1,39.818,3.574,1,1,0,0,0,38.913,2a27.1,27.1,0,0,0-24.6,31.148l1.977-.3A25.086,25.086,0,0,1,36.985,4.27,27.061,27.061,0,0,0,33,18,27.03,27.03,0,0,0,60,45h1.155c-3.006,4.08-8.233,7.171-14.354,8.412l.4,1.961c7.515-1.525,13.591-5.49,16.669-10.877A1,1,0,0,0,63,43Z"/><path d="M33.015,42.061a12.981,12.981,0,0,0-21.766-3.646l1.5,1.32a10.981,10.981,0,0,1,18.614,3.613,1,1,0,0,0,.909.667A7.995,7.995,0,0,1,32,60H9a7,7,0,1,1,.021-14h0l.138.007h0A7.005,7.005,0,0,1,16,53h2a9.007,9.007,0,0,0-8.835-8.992h0C9.142,44.005,9.023,44,9,44A9,9,0,0,0,9,62H32a10,10,0,0,0,1.015-19.939Z"/><path d="M11.485,41.5l-1.732-1a13.042,13.042,0,0,0-1,2.167l1.886.666A10.977,10.977,0,0,1,11.485,41.5Z"/><path d="M46,34H58a6,6,0,0,0,.132-12,7.5,7.5,0,0,0-13.745,1.134A5.511,5.511,0,0,0,40,28.5C40,31.636,42.579,34,46,34Zm-.754-8.969a.992.992,0,0,0,.254-.061V25A3.5,3.5,0,0,1,49,28.5h2a5.508,5.508,0,0,0-4.432-5.394,5.483,5.483,0,0,1,10.024.32.989.989,0,0,0,1.022.618l.205-.025A1.354,1.354,0,0,1,58,24a4,4,0,0,1,0,8H46c-2.317,0-4-1.472-4-3.5A3.5,3.5,0,0,1,45.246,25.031Z"/></g></svg>