<svg xmlns="http://www.w3.org/2000/svg" viewBox="0 0 64 64"><g id="_18-Storms" data-name="18-Storms"><path d="M63,42c-4,7-13.18,11-22,11A26,26,0,0,1,15,27,26.362,26.362,0,0,1,39,1a26.435,26.435,0,0,0-5,15A26,26,0,0,0,60,42Z" style="fill:#ffdc78"/><path d="M21,25A26.254,26.254,0,0,1,36.111,1.424,26.351,26.351,0,0,0,15,27,26,26,0,0,0,41,53a29.985,29.985,0,0,0,12.409-2.7A30.249,30.249,0,0,1,47,51,26,26,0,0,1,21,25Z" style="fill:#ffbb3d"/><path d="M9.18,40a11.985,11.985,0,0,1,23.13-1.98A8.993,8.993,0,0,1,32,56H9A8,8,0,0,1,9,40c.06,0,.12.01.18.01Z" style="fill:#9b9b9e"/><path d="M25.18,56h-16c-.14,0-.28,0-.41-.01a7.993,7.993,0,0,1,0-15.98c.09,0,.18-.01.28-.01.04,0,.09.01.13.01V40a8,8,0,0,1,8,8A8,8,0,0,1,25.18,56Z" style="fill:#b9b9bd"/><path d="M41,47a9,9,0,0,1-9,9H25.18a8.239,8.239,0,0,0-.25-2,8.361,8.361,0,0,0-.33-1,8.008,8.008,0,0,0-7.42-5,8,8,0,0,0-8-8,11.652,11.652,0,0,1,.48-1.87,6.734,6.734,0,0,1,1.11-.12c.09,0,.18-.01.28-.01.04,0,.09.01.13.01V38a8,8,0,0,1,8,8,8,8,0,0,1,7.65,5.644A1.966,1.966,0,0,0,28.721,53H31.48a9.708,9.708,0,0,0,9.42-7.36A10.122,10.122,0,0,1,41,47Z" style="fill:#7d7d80"/><polygon points="18 63 21 54 16 54 26 43 23 51 28 51 18 63" style="fill:#ffdc78"/><path d="M33.015,37.061a12.981,12.981,0,0,0-21.766-3.646l1.5,1.32a10.981,10.981,0,0,1,18.614,3.613,1,1,0,0,0,.909.667A7.995,7.995,0,0,1,32,55H29v2h3a10,10,0,0,0,1.015-19.939Z"/><path d="M11.485,36.5l-1.732-1a13.042,13.042,0,0,0-1,2.167l1.886.666A10.977,10.977,0,0,1,11.485,36.5Z"/><path d="M9.021,41h0l.138.007h0A7.005,7.005,0,0,1,16,48h2a9.007,9.007,0,0,0-8.835-8.992h0C9.142,39.005,9.023,39,9,39A9,9,0,0,0,9,57h4V55H9a7,7,0,1,1,.021-14Z"/><path d="M28,50H24.443l2.494-6.648a1,1,0,0,0-1.677-1.025l-10,11A1,1,0,0,0,16,55h3.612l-2.56,7.684a1,1,0,0,0,1.717.957l10-12A1,1,0,0,0,28,50Zm-7.375,8.288,1.323-3.972A1,1,0,0,0,21,53H18.261l4.972-5.47-1.17,3.118A1,1,0,0,0,23,52h2.865Z"/><path d="M63.865,41.5A1,1,0,0,0,63,41H60A25.028,25.028,0,0,1,35,16,25.538,25.538,0,0,1,39.818,1.574,1,1,0,0,0,39.866.5a.983.983,0,0,0-.953-.5A27.368,27.368,0,0,0,14,27h2A25.355,25.355,0,0,1,36.985,2.27,27.061,27.061,0,0,0,33,16,27.03,27.03,0,0,0,60,43h1.159c-3.839,5.239-11.152,8.71-19.193,8.984l.068,2C51.5,53.66,60.065,49.151,63.868,42.5A1,1,0,0,0,63.865,41.5Z"/></g></svg>