<svg xmlns="http://www.w3.org/2000/svg" viewBox="0 0 64 64"><g id="_21-Clear" data-name="21-Clear"><path d="M62,48A32.391,32.391,0,0,1,34.323,63C16.475,63,2,48.944,2,31.613A31.472,31.472,0,0,1,27,1a29.534,29.534,0,0,0-5.808,17.861c0,16.793,14.02,30.407,31.313,30.407A32.146,32.146,0,0,0,62,48Z" style="fill:#ffdc78"/><path d="M10,27.613A31.1,31.1,0,0,1,23.585,1.953,31.368,31.368,0,0,0,2,31.613C2,48.944,16.475,63,34.323,63a33.069,33.069,0,0,0,18.789-5.762A33.686,33.686,0,0,1,42.323,59C24.475,59,10,44.944,10,27.613Z" style="fill:#ffb145"/><path d="M34.323,64C15.949,64,1,49.471,1,31.612q0-.837.043-1.664l2,.1Q3,30.828,3,31.612C3,48.368,17.052,62,34.323,62a31.406,31.406,0,0,0,25.36-12.384,36.283,36.283,0,0,1-7.178.652c-.861,0-1.73-.034-2.582-.1l.154-1.994c.8.061,1.618.093,2.428.093a31.012,31.012,0,0,0,9.2-1.224,1,1,0,0,1,1.143,1.485A33.26,33.26,0,0,1,34.323,64Z"/><path d="M48.206,49.993C32.235,47.929,20.192,34.545,20.192,18.861A30.738,30.738,0,0,1,24.674,2.643a30.394,30.394,0,0,0-20.76,21.6l-1.938-.49A32.486,32.486,0,0,1,26.786.023,1,1,0,0,1,27.8,1.6a28.5,28.5,0,0,0-5.608,17.261c0,14.681,11.294,27.212,26.271,29.148Z"/><path d="M3.2,28.115l-1.986-.23c.079-.686.183-1.381.309-2.066l1.967.362C3.374,26.822,3.277,27.473,3.2,28.115Z"/></g></svg>