<svg xmlns="http://www.w3.org/2000/svg" viewBox="0 0 64 64"><g id="_23-Humidity" data-name="23-Humidity"><path d="M49.54,37H14.46A18,18,0,1,0,50,41,18.164,18.164,0,0,0,49.54,37Z" style="fill:#5ec8e6"/><path d="M54,41a22,22,0,0,1-44,0C10,30.66,23.81,8.03,30.22,1.72a2.56,2.56,0,0,1,3.56,0C40.19,8.03,54,30.66,54,41Zm-4,0a18.164,18.164,0,0,0-.46-4H14.46A18,18,0,1,0,50,41Z" style="fill:#c2f1ff"/><path d="M14.835,37H14.46A18,18,0,0,0,47.851,49.531,21.993,21.993,0,0,1,14.835,37Z" style="fill:#26a5c9"/><path d="M47.851,49.531A17.99,17.99,0,0,1,14.46,37h.375A22,22,0,0,1,14,31a22.181,22.181,0,0,1,1.034-5.981C12.1,31.083,10,36.974,10,41a22,22,0,0,0,43.8,2.921A22.107,22.107,0,0,1,47.851,49.531Z" style="fill:#a4eaff"/><path d="M35,13.072a2,2,0,0,1-1.672-.9c-.234-.356-.469-.7-.7-1.05a2,2,0,1,1,3.31-2.244q.366.537.732,1.1A2,2,0,0,1,35,13.072Z" style="fill:#fff"/><path d="M46.326,35a2,2,0,0,1-1.89-1.35,93.18,93.18,0,0,0-7.484-15.643,2,2,0,1,1,3.455-2.016,97.869,97.869,0,0,1,7.81,16.357A2,2,0,0,1,46.326,35Z" style="fill:#fff"/><rect x="20" y="36" width="2" height="2"/><path d="M18,38V36H14.462a1,1,0,0,0-.975.778,19,19,0,1,0,37.026,0A1,1,0,0,0,49.538,36H24v2H48.723A16.814,16.814,0,0,1,49,41a17,17,0,0,1-34,0,16.814,16.814,0,0,1,.277-3Z"/><rect x="23.515" y="46" width="16.971" height="2" transform="translate(-23.861 36.393) rotate(-45)"/><path d="M33,52a3,3,0,1,0,3-3A3,3,0,0,0,33,52Zm4,0a1,1,0,1,1-1-1A1,1,0,0,1,37,52Z"/><path d="M28,39a3,3,0,1,0,3,3A3,3,0,0,0,28,39Zm0,4a1,1,0,1,1,1-1A1,1,0,0,1,28,43Z"/><path d="M43.816,17.505l1.727-1.01q-.6-1.02-1.2-2.015l-1.709,1.04Q43.228,16.5,43.816,17.505Z"/><path d="M46.7,18.512l-1.746.976C50.066,28.627,53,36.468,53,41a21,21,0,0,1-41.654,3.819l-1.967.362A23,23,0,0,0,55,41C55,34.341,49.8,24.052,46.7,18.512Z"/><path d="M11,41C11,31.017,24.532,8.724,30.922,2.43a1.6,1.6,0,0,1,2.155,0A69.9,69.9,0,0,1,41.4,13.535l1.69-1.07A70.879,70.879,0,0,0,34.48,1a3.653,3.653,0,0,0-4.961,0C22.763,7.659,9,30.373,9,41c0,.7.031,1.4.094,2.09l1.992-.18C11.029,42.28,11,41.638,11,41Z"/></g></svg>