<svg xmlns="http://www.w3.org/2000/svg" viewBox="0 0 64 64"><g id="_24-Humidity" data-name="24-Humidity"><path d="M33.78,1.72a2.56,2.56,0,0,0-3.56,0C23.81,8.03,10,30.66,10,41a22,22,0,0,0,44,0C54,30.66,40.19,8.03,33.78,1.72Z" style="fill:#5ec8e6"/><path d="M36,53A22,22,0,0,1,14,31a22.181,22.181,0,0,1,1.034-5.981C12.1,31.083,10,36.974,10,41a22,22,0,0,0,43.8,2.921A21.966,21.966,0,0,1,36,53Z" style="fill:#26a5c9"/><path d="M35,13.072a2,2,0,0,1-1.672-.9c-.234-.356-.469-.7-.7-1.05a2,2,0,1,1,3.31-2.244q.366.537.732,1.1A2,2,0,0,1,35,13.072Z" style="fill:#a4eaff"/><path d="M46.326,35a2,2,0,0,1-1.89-1.35,93.18,93.18,0,0,0-7.484-15.643,2,2,0,1,1,3.455-2.016,97.869,97.869,0,0,1,7.81,16.357A2,2,0,0,1,46.326,35Z" style="fill:#a4eaff"/><rect x="15.029" y="38" width="33.941" height="2" transform="translate(-18.205 34.05) rotate(-45)"/><path d="M39,52a5,5,0,1,1,5-5A5.006,5.006,0,0,1,39,52Zm0-8a3,3,0,1,0,3,3A3,3,0,0,0,39,44Z"/><path d="M25,36a5,5,0,1,1,5-5A5.006,5.006,0,0,1,25,36Zm0-8a3,3,0,1,0,3,3A3,3,0,0,0,25,28Z"/><path d="M43.816,17.505q-.587-1-1.182-1.985l1.709-1.04q.6.995,1.2,2.015Z"/><path d="M32,64A22.985,22.985,0,0,1,9.379,45.181l1.967-.362A21,21,0,0,0,53,41c0-4.532-2.934-12.373-8.05-21.512l1.746-.976C49.8,24.052,55,34.341,55,41A23.025,23.025,0,0,1,32,64Z"/><path d="M9.094,43.09C9.031,42.4,9,41.7,9,41,9,30.373,22.763,7.659,29.519,1A3.653,3.653,0,0,1,34.48,1a70.879,70.879,0,0,1,8.612,11.461l-1.69,1.07a69.9,69.9,0,0,0-8.325-11.1,1.6,1.6,0,0,0-2.155,0C24.532,8.724,11,31.017,11,41c0,.638.029,1.28.086,1.91Z"/></g></svg>