<svg xmlns="http://www.w3.org/2000/svg" viewBox="0 0 64 64"><g id="_25-Celsius" data-name="25-Celsius"><path d="M24,40.6a12,12,0,1,1-12,0V7a6,6,0,0,1,6-6,6.009,6.009,0,0,1,6,6Z" style="fill:#ffb145"/><path d="M18,63A12.005,12.005,0,0,1,7.2,45.763a2,2,0,0,1,3.6,1.748A7.916,7.916,0,0,0,10,51a8,8,0,1,0,15.335-3.2A2,2,0,1,1,29,46.2,12,12,0,0,1,18,63Z" style="fill:#fc9508"/><rect x="12" y="6" width="3" height="33" rx="1.5" style="fill:#fc9508"/><rect x="21" y="6" width="3" height="33" rx="1.5" style="fill:#fc9508"/><circle cx="55" cy="4" r="3" style="fill:#ffb145"/><path d="M52,29v2a8,8,0,0,1-8,8H39a9,9,0,0,1-9-9V16a9,9,0,0,1,9-9h5a8,8,0,0,1,8,8v2H48V15a4,4,0,0,0-4-4H40a6,6,0,0,0-6,6V29a6,6,0,0,0,6,6h4a4,4,0,0,0,4-4V29Z" style="fill:#ffb145"/><rect x="11" y="13" width="2" height="2"/><path d="M25,40.038V7a7.008,7.008,0,0,0-7-7,7.008,7.008,0,0,0-7,7v4h2V7a5.006,5.006,0,0,1,5-5,5.009,5.009,0,0,1,5,5v4H18v2h5v4H18v2h5v4H18v2h5v4H18v2h5v4H18v2h5v3.6a1,1,0,0,0,.5.865,11,11,0,1,1-11,0A1,1,0,0,0,13,40.6V17H11V40.038a13,13,0,1,0,14,0Z"/><path d="M22.36,43.125l-.97,1.75A7.007,7.007,0,0,1,25,51h2A9.011,9.011,0,0,0,22.36,43.125Z"/><path d="M24.064,54.5l1.731,1a8.928,8.928,0,0,0,.921-2.251l-1.936-.5A6.965,6.965,0,0,1,24.064,54.5Z"/><path d="M44,6H39A10.011,10.011,0,0,0,29,16h2a8.009,8.009,0,0,1,8-8h5a7.008,7.008,0,0,1,7,7v1H49V15a5.006,5.006,0,0,0-5-5H40a7.008,7.008,0,0,0-7,7V29a7.008,7.008,0,0,0,7,7h4a5.006,5.006,0,0,0,5-5V30h2v1a7.008,7.008,0,0,1-7,7H39a8.009,8.009,0,0,1-8-8V22H29v8A10.011,10.011,0,0,0,39,40h5a9.01,9.01,0,0,0,9-9V29a1,1,0,0,0-1-1H48a1,1,0,0,0-1,1v2a3,3,0,0,1-3,3H40a5.006,5.006,0,0,1-5-5V17a5.006,5.006,0,0,1,5-5h4a3,3,0,0,1,3,3v2a1,1,0,0,0,1,1h4a1,1,0,0,0,1-1V15A9.01,9.01,0,0,0,44,6Z"/><rect x="29" y="18" width="2" height="2"/><path d="M55,0a4,4,0,1,0,4,4A4,4,0,0,0,55,0Zm0,6a2,2,0,1,1,2-2A2,2,0,0,1,55,6Z"/></g></svg>