<svg xmlns="http://www.w3.org/2000/svg" viewBox="0 0 64 64"><g id="_26-Falen_Hein" data-name="26-Falen Hein"><path d="M24,40.6a12,12,0,1,1-12,0V7a6,6,0,0,1,6-6,6.009,6.009,0,0,1,6,6Z" style="fill:#a4eaff"/><path d="M18,63A12.005,12.005,0,0,1,7.2,45.763a2,2,0,0,1,3.6,1.748A7.916,7.916,0,0,0,10,51a8,8,0,1,0,15.335-3.2A2,2,0,1,1,29,46.2,12,12,0,0,1,18,63Z" style="fill:#5ec8e6"/><rect x="12" y="6" width="3" height="33" rx="1.5" style="fill:#5ec8e6"/><rect x="21" y="6" width="3" height="33" rx="1.5" style="fill:#5ec8e6"/><circle cx="55" cy="4" r="3" style="fill:#5ec8e6"/><path d="M48,7v5H34v6H46v4H34V39H30V9a2.006,2.006,0,0,1,2-2Z" style="fill:#5ec8e6"/><rect x="11" y="13" width="2" height="2"/><path d="M25,40.038V7a7.008,7.008,0,0,0-7-7,7.008,7.008,0,0,0-7,7v4h2V7a5.006,5.006,0,0,1,5-5,5.009,5.009,0,0,1,5,5v4H18v2h5v4H18v2h5v4H18v2h5v4H18v2h5v4H18v2h5v3.6a1,1,0,0,0,.5.865,11,11,0,1,1-11,0A1,1,0,0,0,13,40.6V17H11V40.038a13,13,0,1,0,14,0Z"/><path d="M22.36,43.125l-.97,1.75A7.007,7.007,0,0,1,25,51h2A9.011,9.011,0,0,0,22.36,43.125Z"/><path d="M24.064,54.5l1.731,1a8.928,8.928,0,0,0,.921-2.251l-1.936-.5A6.965,6.965,0,0,1,24.064,54.5Z"/><path d="M55,0a4,4,0,1,0,4,4A4,4,0,0,0,55,0Zm0,6a2,2,0,1,1,2-2A2,2,0,0,1,55,6Z"/><path d="M48,6H32a3,3,0,0,0-3,3V19h2V9a1,1,0,0,1,1-1H47v3H34a1,1,0,0,0-1,1v6a1,1,0,0,0,1,1H45v2H34a1,1,0,0,0-1,1V38H31V25H29V39a1,1,0,0,0,1,1h4a1,1,0,0,0,1-1V23H46a1,1,0,0,0,1-1V18a1,1,0,0,0-1-1H35V13H48a1,1,0,0,0,1-1V7A1,1,0,0,0,48,6Z"/><rect x="29" y="21" width="2" height="2"/></g></svg>