<svg xmlns="http://www.w3.org/2000/svg" viewBox="0 0 64 64"><g id="_27-Cold" data-name="27-Cold"><path d="M24,40.6V7a6.009,6.009,0,0,0-6-6,6,6,0,0,0-6,6V40.6a12,12,0,1,0,12,0ZM17.07,58.95A8,8,0,0,1,15,43.59V37a4.38,4.38,0,0,0,3,1,4.38,4.38,0,0,0,3-1v6.59a8,8,0,0,1-3.93,15.36Z" style="fill:#e8f0f2"/><path d="M21,43.589a8,8,0,1,1-6,0V8a3,3,0,0,1,6,0v35.59Z" style="fill:#b5efff"/><path d="M18,63A12.005,12.005,0,0,1,7.2,45.763a2,2,0,0,1,3.6,1.748A7.916,7.916,0,0,0,10,51a8,8,0,1,0,15.335-3.2A2,2,0,1,1,29,46.2,12,12,0,0,1,18,63Z" style="fill:#fafaff"/><rect x="21" y="10" width="3" height="25" rx="1.5" style="fill:#fafaff"/><rect x="12" y="10" width="3" height="25" rx="1.5" style="fill:#fafaff"/><path d="M21,43.59a8,8,0,1,1-6,0V37a4.38,4.38,0,0,0,3,1,4.38,4.38,0,0,0,3-1v6.59Z" style="fill:#5ec8e6"/><path d="M17.069,55.949a8.04,8.04,0,0,1-6.923-6.45,8.115,8.115,0,0,0-.077,2.55,8,8,0,1,0,15.778-2.531A8,8,0,0,1,17.069,55.949Z" style="fill:#26a5c9"/><path d="M21.318,57a1,1,0,0,1-.553-1.834,4.926,4.926,0,0,0,.569-.439,1,1,0,1,1,1.332,1.492,7.289,7.289,0,0,1-.8.615A1,1,0,0,1,21.318,57Z" style="fill:#f7f7fc"/><path d="M23.918,53a1.055,1.055,0,0,1-.167-.014,1,1,0,0,1-.82-1.152,5.009,5.009,0,0,0-3.264-5.549,1,1,0,0,1,.666-1.887A7.012,7.012,0,0,1,25,51a7.084,7.084,0,0,1-.1,1.166A1,1,0,0,1,23.918,53Z" style="fill:#f7f7fc"/><rect x="11" y="13" width="2" height="2"/><path d="M25,40.038V7a7.008,7.008,0,0,0-7-7,7.008,7.008,0,0,0-7,7v4h2V7a5.006,5.006,0,0,1,5-5,5.009,5.009,0,0,1,5,5V40.6a1,1,0,0,0,.5.865,11,11,0,1,1-11,0A1,1,0,0,0,13,40.6V17H11V40.038a13,13,0,1,0,14,0Z"/><path d="M58,19V17H52.858a3.915,3.915,0,0,0-.425-1.019l2.224-2.224-1.414-1.414-2.224,2.224A3.915,3.915,0,0,0,50,14.142V9H48v5.142a3.915,3.915,0,0,0-1.019.425l-2.224-2.224-1.414,1.414,2.224,2.224A3.915,3.915,0,0,0,45.142,17H40v2h5.142a3.915,3.915,0,0,0,.425,1.019l-2.224,2.224,1.414,1.414,2.224-2.224A3.915,3.915,0,0,0,48,21.858V27h2V21.858a3.915,3.915,0,0,0,1.019-.425l2.224,2.224,1.414-1.414-2.224-2.224A3.915,3.915,0,0,0,52.858,19Zm-9,1a2,2,0,1,1,2-2A2,2,0,0,1,49,20Z"/><path d="M40.433,31.981l2.224-2.224-1.414-1.414-2.224,2.224A3.915,3.915,0,0,0,38,30.142V25H36v5.142a3.915,3.915,0,0,0-1.019.425l-2.224-2.224-1.414,1.414,2.224,2.224A3.915,3.915,0,0,0,33.142,33H28v2h5.142a3.915,3.915,0,0,0,.425,1.019l-2.224,2.224,1.414,1.414,2.224-2.224A3.915,3.915,0,0,0,36,37.858V43h2V37.858a3.915,3.915,0,0,0,1.019-.425l2.224,2.224,1.414-1.414-2.224-2.224A3.915,3.915,0,0,0,40.858,35H46V33H40.858A3.915,3.915,0,0,0,40.433,31.981ZM37,36a2,2,0,1,1,2-2A2,2,0,0,1,37,36Z"/><path d="M14,42.941a9,9,0,0,0,2.956,17A9.245,9.245,0,0,0,17.979,60,9,9,0,0,0,22,42.94V37a1,1,0,0,0-.608-.911,1.012,1.012,0,0,0-1.088.192A3.452,3.452,0,0,1,18,37a3.478,3.478,0,0,1-2.3-.717A1,1,0,0,0,14,37Zm1.375,1.573A1,1,0,0,0,16,43.587v-4.9a6.526,6.526,0,0,0,4,0v4.9a1,1,0,0,0,.625.927,7,7,0,1,1-5.25,0Z"/><path d="M18,35A4.694,4.694,0,0,0,21.9,32.447l-1.787-.9A2.723,2.723,0,0,1,18,33a2.723,2.723,0,0,1-2.108-1.453l-1.787.9A4.694,4.694,0,0,0,18,35Z"/><path d="M21.9,27.447l-1.787-.9A2.723,2.723,0,0,1,18,28a2.723,2.723,0,0,1-2.108-1.453l-1.787.9A4.694,4.694,0,0,0,18,30,4.694,4.694,0,0,0,21.9,27.447Z"/></g></svg>