<svg xmlns="http://www.w3.org/2000/svg" viewBox="0 0 64 64"><g id="_28-Hot" data-name="28-Hot"><path d="M24,40.6V7a6.009,6.009,0,0,0-6-6,6,6,0,0,0-6,6V40.6a12,12,0,1,0,12,0ZM17.07,58.95A8,8,0,0,1,15,43.59V20a3,3,0,0,1,6,0V43.59a8,8,0,0,1-3.93,15.36Z" style="fill:#e8f0f2"/><path d="M18,63A12.005,12.005,0,0,1,7.2,45.763a2,2,0,0,1,3.6,1.748A7.916,7.916,0,0,0,10,51a8,8,0,1,0,15.335-3.2A2,2,0,1,1,29,46.2,12,12,0,0,1,18,63Z" style="fill:#fafaff"/><rect x="21" y="10" width="3" height="25" rx="1.5" style="fill:#fafaff"/><rect x="12" y="10" width="3" height="25" rx="1.5" style="fill:#fafaff"/><path d="M21,43.589a8,8,0,1,1-6,0V8a3,3,0,0,1,6,0v35.59Z" style="fill:#ffdc78"/><path d="M21,43.59a8,8,0,1,1-6,0V20a3,3,0,0,1,6,0V43.59Z" style="fill:#ffb145"/><path d="M17.069,55.949a8.04,8.04,0,0,1-6.923-6.45,8.115,8.115,0,0,0-.077,2.55,8,8,0,1,0,15.778-2.531A8,8,0,0,1,17.069,55.949Z" style="fill:#fc9508"/><path d="M51,40.5v1a1.5,1.5,0,0,1-3,0v-1a1.5,1.5,0,0,1,3,0Z" style="fill:#ffb145"/><path d="M45,47.5v3a1.5,1.5,0,0,1-3,0v-3a1.5,1.5,0,0,1,3,0Z" style="fill:#ffb145"/><path d="M45,29.95V40.38a1.5,1.5,0,1,1-3,0V29.81a10.958,10.958,0,0,1-4-1.6V34.5a1.5,1.5,0,0,1-3,0V25.31a10.993,10.993,0,1,1,16,2.18V34.5a1.5,1.5,0,0,1-3,0V29.24A11.05,11.05,0,0,1,45,29.95Z" style="fill:#ffb145"/><path d="M49.5,42A1.5,1.5,0,0,1,48,40.5v1a1.5,1.5,0,0,0,3,0v-1A1.5,1.5,0,0,1,49.5,42Z" style="fill:#fc9508"/><path d="M43.5,50A1.5,1.5,0,0,1,42,48.5v2a1.5,1.5,0,0,0,3,0v-2A1.5,1.5,0,0,1,43.5,50Z" style="fill:#fc9508"/><path d="M36.5,33A1.5,1.5,0,0,1,35,31.5v3a1.5,1.5,0,0,0,3,0v-3A1.5,1.5,0,0,1,36.5,33Z" style="fill:#fc9508"/><path d="M43.5,39A1.565,1.565,0,0,1,42,37.38v3a1.5,1.5,0,1,0,3,0v-3A1.565,1.565,0,0,1,43.5,39Z" style="fill:#fc9508"/><path d="M33.111,17.519A11.124,11.124,0,0,0,33,19a10.912,10.912,0,0,0,2,6.31v-3A10.914,10.914,0,0,1,33.111,17.519Z" style="fill:#fc9508"/><path d="M38,25.21v3a10.958,10.958,0,0,0,4,1.6v-3A10.958,10.958,0,0,1,38,25.21Z" style="fill:#fc9508"/><path d="M51,24.49v3A10.993,10.993,0,0,0,55,19a11.182,11.182,0,0,0-.113-1.5A11,11,0,0,1,51,24.49Z" style="fill:#fc9508"/><path d="M45,26.95v3a11.05,11.05,0,0,0,3-.71v-3A11.05,11.05,0,0,1,45,26.95Z" style="fill:#fc9508"/><path d="M49.5,33A1.5,1.5,0,0,1,48,31.5v3a1.5,1.5,0,0,0,3,0v-3A1.5,1.5,0,0,1,49.5,33Z" style="fill:#fc9508"/><rect x="58" y="18" width="4" height="2"/><rect x="26" y="18" width="4" height="2"/><rect x="43" y="1" width="2" height="4"/><rect x="31.687" y="5.687" width="2" height="4" transform="translate(4.138 25.364) rotate(-45)"/><rect x="53.314" y="6.687" width="4" height="2" transform="translate(10.766 41.364) rotate(-45)"/><path d="M53.959,18.089c.026.3.041.6.041.911s-.015.611-.041.911l1.992.178C55.983,19.73,56,19.367,56,19s-.017-.73-.049-1.089Z"/><path d="M50.363,26.714a1,1,0,0,0-.363.771V34.5a.5.5,0,0,1-1,0V29.238a1,1,0,0,0-1.365-.93,9.948,9.948,0,0,1-2.725.645,1,1,0,0,0-.91,1V40.375a.512.512,0,1,1-1,0V29.81a1,1,0,0,0-.819-.984,9.894,9.894,0,0,1-3.635-1.451A1,1,0,0,0,37,28.213V34.5a.5.5,0,0,1-1,0V25.312a1,1,0,0,0-.182-.575A9.991,9.991,0,0,1,44,9a10.036,10.036,0,0,1,9.624,7.272l1.924-.544A12,12,0,0,0,32,19a11.916,11.916,0,0,0,2,6.621V34.5a2.5,2.5,0,0,0,5,0V29.9a11.824,11.824,0,0,0,2,.709v9.762a2.5,2.5,0,1,0,5,0V30.827c.336-.056.669-.129,1-.215V34.5a2.5,2.5,0,0,0,5,0V27.944a11.926,11.926,0,0,0,3.548-5.672l-1.924-.544A9.959,9.959,0,0,1,50.363,26.714Z"/><path d="M43.5,45A2.5,2.5,0,0,0,41,47.5v3a2.5,2.5,0,0,0,5,0v-3A2.5,2.5,0,0,0,43.5,45Zm.5,5.5a.5.5,0,0,1-1,0v-3a.5.5,0,0,1,1,0Z"/><path d="M49.5,38A2.5,2.5,0,0,0,47,40.5v1a2.5,2.5,0,0,0,5,0v-1A2.5,2.5,0,0,0,49.5,38Zm.5,3.5a.5.5,0,0,1-1,0v-1a.5.5,0,0,1,1,0Z"/><rect x="11" y="13" width="2" height="2"/><path d="M25,40.038V7a7.009,7.009,0,0,0-7-7,7.009,7.009,0,0,0-7,7v4h2V7a5.006,5.006,0,0,1,5-5,5.009,5.009,0,0,1,5,5V40.6a1,1,0,0,0,.5.865,11,11,0,1,1-11,0A1,1,0,0,0,13,40.6V17H11V40.038a13,13,0,1,0,14,0Z"/><path d="M14,42.941a9,9,0,0,0,2.956,17A9.257,9.257,0,0,0,17.979,60,9,9,0,0,0,22,42.94V20a4,4,0,0,0-8,0Zm1.375,1.573A1,1,0,0,0,16,43.587V20a2,2,0,0,1,4,0V43.587a1,1,0,0,0,.624.927,7,7,0,1,1-5.249,0Z"/><path d="M18,8a2.723,2.723,0,0,1,2.108,1.453l1.787-.9A4.693,4.693,0,0,0,18,6a4.693,4.693,0,0,0-3.895,2.553l1.787.9A2.723,2.723,0,0,1,18,8Z"/><path d="M15.892,14.453A2.723,2.723,0,0,1,18,13a2.723,2.723,0,0,1,2.108,1.453l1.787-.9A4.693,4.693,0,0,0,18,11a4.693,4.693,0,0,0-3.895,2.553Z"/></g></svg>