<svg xmlns="http://www.w3.org/2000/svg" viewBox="0 0 64 64"><g id="_30-UV_Index" data-name="30-UV Index"><circle cx="32" cy="32" r="20" style="fill:#ffb145"/><path d="M36,44A19.93,19.93,0,0,1,16.591,19.252a19.993,19.993,0,1,0,34.818,17.5A19.956,19.956,0,0,1,36,44Z" style="fill:#fca124"/><path d="M43,41V54.75A8.128,8.128,0,0,1,35,63h0a8.128,8.128,0,0,1-8-8.25V41h4V55a4,4,0,0,0,4,4h0a4,4,0,0,0,4-4V41Z" style="fill:#ffdc78"/><polygon points="63 41 55 63 47 41 51 41 55 54 59 41 63 41" style="fill:#ffdc78"/><rect x="26" y="46" width="2" height="2"/><path d="M43,40H39a1,1,0,0,0-1,1V55a3,3,0,0,1-6,0V41a1,1,0,0,0-1-1H27a1,1,0,0,0-1,1v3h2V42h2V55a5,5,0,0,0,10,0V42h2V54.75a7,7,0,1,1-14,0V50H26v4.75a9,9,0,1,0,18,0V41A1,1,0,0,0,43,40Z"/><path d="M63.819,40.426A1,1,0,0,0,63,40H59a1,1,0,0,0-.956.706L55,50.6l-3.044-9.894A1,1,0,0,0,51,40H47a1,1,0,0,0-.939,1.342l8,22a1,1,0,0,0,1.878,0l5.819-16-1.879-.684L55,60.074,48.428,42h1.834l3.782,12.294a1,1,0,0,0,1.912,0L59.738,42h1.834l-.966,2.658,1.879.684,1.454-4A1,1,0,0,0,63.819,40.426Z"/><path d="M50.62,35.8l1.959.4a20.6,20.6,0,0,0,.317-2.1l-1.99-.2A18.632,18.632,0,0,1,50.62,35.8Z"/><path d="M53,32A21,21,0,1,0,23.6,51.252l.8-1.832A19,19,0,1,1,51,32Z"/><rect x="31" y="1" width="2" height="8"/><rect x="55" y="31" width="8" height="2"/><rect x="1" y="31" width="8" height="2"/><rect x="11.908" y="8.909" width="2" height="7.999" transform="translate(-5.347 12.908) rotate(-45)"/><rect x="8.909" y="50.092" width="7.999" height="2" transform="translate(-32.347 24.092) rotate(-45)"/><rect x="47.092" y="11.908" width="7.999" height="2" transform="translate(5.837 39.908) rotate(-45)"/></g></svg>